<svg xmlns="http://www.w3.org/2000/svg" xmlns:xlink="http://www.w3.org/1999/xlink" version="1.1" viewBox="0 0 100 100" width="48" height="48" xml:space="preserve"><path d="M88.821,80.051l-30.1-30.1l28.242-28.242c2.215-2.215,3.95-9.25,2.239-10.96c-1.58-1.579-8.915,0.194-10.96,2.239  L51.305,39.924V25h1.688c0.552,0,1-0.448,1-1V13.674c0-2.033-1.654-3.688-3.688-3.688s-3.688,1.654-3.688,3.688V24  c0,0.552,0.448,1,1,1h1.688v15.535L21.758,12.988c-2.044-2.044-9.383-3.817-10.96-2.239c-1.71,1.71,0.024,8.745,2.239,10.96  l28.242,28.242l-30.1,30.1c-1.471,1.471-1.471,3.863,0,5.334l3.387,3.387c0.712,0.712,1.66,1.105,2.667,1.105  s1.955-0.393,2.667-1.105l29.405-29.405V82h-1.688c-0.552,0-1,0.448-1,1s0.448,1,1,1h1.688v5c0,0.552,0.448,1,1,1s1-0.448,1-1v-5  h1.688c0.552,0,1-0.448,1-1s-0.448-1-1-1h-1.688V59.977L80.1,88.771c0.735,0.735,1.701,1.103,2.667,1.103s1.932-0.368,2.667-1.103  l3.387-3.387C90.292,83.914,90.292,81.521,88.821,80.051z M48.618,13.674c0-0.931,0.757-1.688,1.688-1.688s1.688,0.757,1.688,1.688  V23h-3.375V13.674z M79.656,14.402c1.398-1.397,5.438-2.299,7.34-2.299c0.353,0,0.632,0.031,0.808,0.096  c0.497,0.977-0.466,6.307-2.255,8.096L51.305,54.538V42.753L79.656,14.402z M14.451,20.295c-1.798-1.799-2.761-7.172-2.263-8.094  c1.11-0.415,6.495,0.541,8.156,2.201l28.242,28.242l-5.893,5.893L14.451,20.295z M18.486,87.357c-0.691,0.69-1.814,0.69-2.506,0  l-3.387-3.387c-0.691-0.691-0.691-1.815,0-2.506l36.712-36.712v11.786L18.486,87.357z M87.407,83.971l-3.387,3.387  c-0.691,0.69-1.814,0.69-2.506,0l-30.1-30.1l5.893-5.893l30.1,30.1C88.098,82.156,88.098,83.28,87.407,83.971z"/></svg>